<svg width="150" height="147" viewBox="0 0 150 147" fill="none" xmlns="http://www.w3.org/2000/svg">
<path fill-rule="evenodd" clip-rule="evenodd" d="M75 118.75C80.7453 118.75 86.4344 117.618 91.7424 115.42C97.0504 113.221 101.873 109.998 105.936 105.936C109.998 101.873 113.221 97.0504 115.42 91.7424C117.618 86.4344 118.75 80.7453 118.75 75C118.75 69.2547 117.618 63.5656 115.42 58.2576C113.221 52.9496 109.998 48.1266 105.936 44.0641C101.873 40.0015 97.0504 36.7789 91.7424 34.5803C86.4344 32.3816 80.7453 31.25 75 31.25C63.3968 31.25 52.2688 35.8594 44.0641 44.0641C35.8594 52.2688 31.25 63.3968 31.25 75C31.25 86.6032 35.8594 97.7312 44.0641 105.936C52.2688 114.141 63.3968 118.75 75 118.75ZM63.0437 46.125C66.8346 44.5562 70.8973 43.7491 75 43.75C75.8288 43.75 76.6237 43.4208 77.2097 42.8347C77.7958 42.2487 78.125 41.4538 78.125 40.625C78.125 39.7962 77.7958 39.0013 77.2097 38.4153C76.6237 37.8292 75.8288 37.5 75 37.5C65.0544 37.5 55.5161 41.4509 48.4835 48.4835C41.4509 55.5161 37.5 65.0544 37.5 75C37.5 75.8288 37.8292 76.6237 38.4153 77.2097C39.0013 77.7958 39.7962 78.125 40.625 78.125C41.4538 78.125 42.2487 77.7958 42.8347 77.2097C43.4208 76.6237 43.75 75.8288 43.75 75C43.7495 68.8184 45.5823 62.7755 49.0166 57.6357C52.4509 52.4959 57.3325 48.4901 63.0437 46.125Z" fill="#FFD468"/>
<path d="M128.125 128.125L106.25 106.25" stroke="#FFD468" stroke-width="6" stroke-linecap="round"/>
<path d="M68.75 121.875C98.0901 121.875 121.875 98.0901 121.875 68.75C121.875 39.4099 98.0901 15.625 68.75 15.625C39.4099 15.625 15.625 39.4099 15.625 68.75C15.625 98.0901 39.4099 121.875 68.75 121.875Z" stroke="#FFD468" stroke-width="6"/>
</svg>
